# xmcd
#
# Track frame offsets: 
#        150
#        28292
#        51398
#        79103
#        101154
#        133593
#        160351
#        190259
#        216399
#        241997
#        258727
#        287862
#
# Disc length: 4179 seconds
#
# Revision: 1
# Processed by: cddbd v1.5.1PL0 Copyright (c) Steve Scherf et al.
# Submitted via: ExactAudioCopy v0.95a4
#
DISCID=bd10510c
DTITLE=Bruce McKenzie - Special Moments
DYEAR=2002
DGENRE=Jazz
TTITLE0=A Walk In The Park
TTITLE1=Wine, Candlelight, and You
TTITLE2=Special Moments
TTITLE3=On The Run
TTITLE4=An Evening Affair
TTITLE5=Jazzin'-Clubbin'-Jazz
TTITLE6=Memories of Love
TTITLE7=Better Days
TTITLE8=Reflections
TTITLE9=Nights In Jamaica
TTITLE10=Expressions
TTITLE11=Showtime
EXTD=
EXTT0=
EXTT1=
EXTT2=
EXTT3=
EXTT4=
EXTT5=
EXTT6=
EXTT7=
EXTT8=
EXTT9=
EXTT10=
EXTT11=
PLAYORDER=
